<svg width="512" height="512" viewBox="0 0 512 512" fill="none" xmlns="http://www.w3.org/2000/svg">
<g clip-path="url(#clip0_521_31)">
<path d="M94.7925 133.585L85.9317 138.22L86.0018 138.354L86.0759 138.486C89.0788 143.827 93.7446 151.889 97.9904 158.723C100.099 162.117 102.197 165.358 103.981 167.844C104.855 169.062 105.801 170.306 106.734 171.346C107.19 171.854 107.824 172.518 108.589 173.149L108.603 173.16C109.079 173.553 110.886 175.042 113.598 175.568C115.556 175.947 117.454 175.724 118.109 175.647L118.15 175.642C119.179 175.521 120.302 175.329 121.395 175.117C123.604 174.69 126.268 174.07 128.971 173.399C134.406 172.048 140.481 170.364 144.425 169.225L146.579 168.603L148.261 167.12L170.994 147.082L177.416 141.422L172.812 134.204L155.663 107.313L155.421 106.933L155.145 106.576C137.262 83.4285 119.367 71.3929 105.464 65.1871C98.5424 62.0978 92.6896 60.4887 88.4264 59.6522C86.2963 59.2342 84.5654 59.0095 83.2983 58.8889C82.6647 58.8286 82.1468 58.7943 81.7526 58.7749C81.5556 58.7651 81.3894 58.7591 81.255 58.7554C81.1879 58.7536 81.1287 58.7523 81.0776 58.7515L81.007 58.7505L80.9763 58.7501L80.9621 58.75C80.9553 58.75 80.9486 58.7499 80.8859 68.7497L80.9486 58.7499L77.5904 58.7289L74.9002 60.7391C66.6584 66.8975 66.3769 77.4893 67.0345 84.3674C67.7802 92.1667 70.287 100.842 73.0197 108.543C75.7964 116.368 79.0191 123.768 81.5234 129.171C82.781 131.885 83.8703 134.122 84.6501 135.691C85.0403 136.476 85.3538 137.095 85.5731 137.524C85.6828 137.739 85.7689 137.906 85.8294 138.023L85.9006 138.161L85.9213 138.2L85.9278 138.213L85.9301 138.217C85.931 138.219 85.9317 138.22 94.7925 133.585Z" fill="url(#paint0_linear_521_31)" stroke="#131313" stroke-width="20" stroke-linecap="round"/>
<path d="M376.39 125.698L385.012 130.763L384.931 130.9L384.847 131.034C381.577 136.216 376.509 144.032 371.922 150.642C369.644 153.925 367.385 157.055 365.477 159.448C364.542 160.619 363.534 161.813 362.55 162.805C362.069 163.289 361.403 163.921 360.606 164.512L360.592 164.522C360.096 164.89 358.216 166.286 355.481 166.674C353.507 166.954 351.623 166.634 350.972 166.524L350.931 166.517C349.909 166.345 348.798 166.096 347.717 165.829C345.533 165.29 342.903 164.536 340.238 163.728C334.878 162.104 328.896 160.115 325.015 158.777L322.895 158.046L321.29 156.48L299.603 135.317L293.476 129.338L298.439 122.362L316.929 96.3749L317.19 96.0076L317.483 95.6654C336.516 73.4539 354.998 62.3405 369.198 56.8472C376.267 54.1126 382.194 52.8021 386.494 52.1827C388.643 51.8732 390.383 51.7365 391.654 51.6803C392.29 51.6521 392.809 51.6441 393.204 51.6447C393.401 51.6449 393.567 51.6474 393.702 51.6505C393.769 51.652 393.828 51.6538 393.879 51.6555L393.95 51.6581L393.98 51.6593L393.994 51.6599C394.001 51.6602 394.008 51.6605 393.564 61.6507L394.008 51.6605L397.862 51.8319L400.603 54.5477C407.553 61.4349 407.281 71.5907 406.221 78.5657C405.04 86.3306 402.145 94.7916 399.077 102.273C395.965 109.862 392.456 116.963 389.75 122.131C388.391 124.726 387.221 126.86 386.385 128.354C385.967 129.102 385.631 129.691 385.396 130.1C385.279 130.304 385.187 130.463 385.122 130.575L385.046 130.706L385.023 130.744L385.016 130.756L385.014 130.76C385.013 130.762 385.012 130.763 376.39 125.698Z" fill="url(#paint1_linear_521_31)" stroke="#131313" stroke-width="20" stroke-linecap="round"/>
<path d="M151.616 282L146.051 290.308L158.385 298.57L161.407 284.035L184.791 171.557L186.319 164.203L179.683 160.686C146.851 143.284 119.76 131.655 100.807 124.357C91.3303 120.708 83.8869 118.142 78.776 116.477C76.2205 115.645 74.248 115.038 72.8958 114.634C72.2197 114.432 71.6987 114.281 71.3374 114.178C71.1568 114.127 71.0161 114.087 70.9159 114.059L70.7961 114.026L70.7591 114.015L70.7464 114.012L70.7415 114.011C70.7394 114.01 70.7375 114.01 68.1035 123.656L70.7375 114.01L70.3934 113.916L70.0436 113.846C49.2598 109.736 35.7613 112.796 27.5747 120.197C23.605 123.785 21.5629 127.837 20.5337 131.036C20.0224 132.625 19.7539 134.02 19.6119 135.087C19.5509 135.546 19.5124 135.95 19.4882 136.29C16.857 154.219 25.1568 172.887 36.4422 189.492C48.0915 206.633 64.2781 223.543 80.3707 238.315C96.527 253.145 112.923 266.122 125.25 275.375C131.422 280.008 136.596 283.723 140.237 286.288C142.058 287.57 143.498 288.566 144.489 289.246C144.984 289.585 145.368 289.846 145.631 290.025C145.762 290.114 145.864 290.182 145.934 290.23L146.016 290.285L146.04 290.301L146.047 290.305C146.049 290.307 146.051 290.308 151.616 282Z" fill="url(#paint2_linear_521_31)" stroke="#131313" stroke-width="20" stroke-linecap="round"/>
<path d="M339.051 299.423L345.997 306.767L335.678 316.324L329.873 303.263L277.452 185.327L274.266 178.158L280.442 173.51C314.757 147.68 343.669 129.35 364.063 117.45C374.261 111.5 382.33 107.156 387.883 104.285C390.659 102.849 392.806 101.781 394.276 101.065C395.011 100.707 395.576 100.437 395.966 100.252C396.161 100.16 396.312 100.089 396.419 100.04L396.545 99.9809L396.583 99.9634L396.595 99.9576L396.6 99.9555C396.602 99.9546 396.604 99.9538 400.997 109.002L396.604 99.9538L396.909 99.8136L397.223 99.6944C420.151 90.9965 435.719 91.6928 446.164 97.6305C451.312 100.557 454.482 104.382 456.357 107.59C457.284 109.177 457.895 110.61 458.29 111.72C458.463 112.205 458.596 112.634 458.699 112.995C465.718 131.839 460.277 153.783 450.889 174.162C441.198 195.199 426.18 216.962 410.762 236.416C395.286 255.943 379.113 273.508 366.838 286.168C360.693 292.506 355.505 297.635 351.844 301.188C350.014 302.964 348.564 304.348 347.566 305.293C347.067 305.765 346.68 306.128 346.416 306.376C346.284 306.5 346.182 306.594 346.112 306.66L346.03 306.736L346.007 306.757L346.001 306.763C345.998 306.765 345.997 306.767 339.051 299.423Z" fill="url(#paint3_linear_521_31)" stroke="#131313" stroke-width="20" stroke-linecap="round"/>
<path d="M145.035 134.607C138.307 109.909 151.999 93.2129 151.999 93.2129L157.244 87.9475C185.206 56.0279 258.438 58.9155 258.438 58.9155C314.443 57.6485 331.252 93.8627 331.252 93.8627C339.129 109.061 335.081 139.509 334.092 146.044C333.963 146.893 333.744 147.703 333.447 148.509L311.219 208.8C309.402 242.931 359.803 332.338 359.803 332.338C386.989 386.061 383.976 416.247 383.976 416.247C387.789 473.128 320.41 497.485 320.41 497.485C270.866 507.944 198.555 503.509 198.555 503.509C138.884 501.453 112.837 460.689 112.837 460.689C93.0563 425.122 103.849 370.022 103.849 370.022C130.806 297.603 163.219 208.8 163.219 208.8C168.488 163.484 151.762 159.305 145.035 134.607Z" fill="url(#paint4_linear_521_31)" stroke="#131313" stroke-width="20"/>
<path d="M234.731 91C234.731 91 245 103.608 243.887 127.5M215 355.5C218.038 344.093 223.619 328.851 226 317M226 317C226 317 277 276 286.5 229.5M226 317C229.247 300.843 232.53 245.485 234.731 229.5M234.731 229.5C221.54 226.636 195.107 184.636 184 171M234.731 229.5C236.281 218.248 237.597 207.181 238.714 196.5M238.714 196.5C253.392 191.885 297.69 165.534 308.5 152M238.714 196.5C240.196 182.333 241.328 168.844 242.194 156.5M243.887 127.5C261.297 115.603 269.789 108.861 278 96.5M243.887 127.5C243.485 136.122 242.938 145.888 242.194 156.5M242.194 156.5C226.796 145.12 198.767 139.293 184 110" stroke="#8A73B5" stroke-opacity="0.75" stroke-width="15" stroke-linecap="round"/>
<circle cx="12.5" cy="12.5" r="12.5" transform="matrix(1 0 0 -1 181 423)" fill="#131313"/>
<circle cx="12.5" cy="12.5" r="12.5" transform="matrix(1 0 0 -1 287 423)" fill="#131313"/>
<path d="M213 433C213 433 240.972 471.25 281 433" stroke="#131313" stroke-width="20" stroke-linecap="round"/>
<path d="M45.5 138C48.743 143.896 69.5303 159.525 88.5 177M125 209C116.879 206.212 108.346 201.191 100 195.04M100 195.04C100 195.04 71.5 195.04 56.5 181M100 195.04C94.2185 190.78 93.903 181.977 88.5 177M88.5 177C86.5471 158.776 83.1218 150.572 72.5 138" stroke="#8A73B5" stroke-opacity="0.75" stroke-width="9" stroke-linecap="round"/>
<path d="M426.684 122C424.222 129.119 410.645 153.784 392.438 176.842M349.883 216.195C358.727 211.448 367.552 204.177 375.906 195.712M375.906 195.712C375.906 195.712 409.133 189.74 423.48 171.264M375.906 195.712C381.694 189.847 387.252 183.41 392.438 176.842M392.438 176.842C390.638 156.531 386.5 152.5 386.5 135" stroke="#8A73B5" stroke-opacity="0.75" stroke-width="9" stroke-linecap="round"/>
</g>
<defs>
<linearGradient id="paint0_linear_521_31" x1="86.082" y1="76.4697" x2="145.082" y2="157.97" gradientUnits="userSpaceOnUse">
<stop stop-color="#8A73B5"/>
<stop offset="0.485577" stop-color="#EFE5FF"/>
<stop offset="1" stop-color="#EFE5FF"/>
</linearGradient>
<linearGradient id="paint1_linear_521_31" x1="387.982" y1="69.0974" x2="324.928" y2="147.503" gradientUnits="userSpaceOnUse">
<stop stop-color="#8A73B5"/>
<stop offset="0.485577" stop-color="#EFE5FF"/>
<stop offset="1" stop-color="#EFE5FF"/>
</linearGradient>
<linearGradient id="paint2_linear_521_31" x1="40.5" y1="135.5" x2="148.5" y2="233" gradientUnits="userSpaceOnUse">
<stop stop-color="#8A73B5"/>
<stop offset="0.555819" stop-color="#EFE5FF"/>
<stop offset="1" stop-color="#EFE5FF"/>
</linearGradient>
<linearGradient id="paint3_linear_521_31" x1="435.827" y1="116.153" x2="340.226" y2="251.274" gradientUnits="userSpaceOnUse">
<stop stop-color="#8A73B5"/>
<stop offset="0.555819" stop-color="#EFE5FF"/>
<stop offset="1" stop-color="#EFE5FF"/>
</linearGradient>
<linearGradient id="paint4_linear_521_31" x1="225.172" y1="59.9788" x2="247.156" y2="504.666" gradientUnits="userSpaceOnUse">
<stop stop-color="#8A73B5"/>
<stop offset="0.60692" stop-color="#EFE5FF"/>
<stop offset="1" stop-color="#EFE5FF"/>
</linearGradient>
<clipPath id="clip0_521_31">
<rect width="512" height="512" fill="white"/>
</clipPath>
</defs>
</svg>
