<svg width="100" height="100" viewBox="0 0 100 100" fill="none" xmlns="http://www.w3.org/2000/svg">
<g clip-path="url(#clip0_521_49)">
<path d="M54.7006 8.30859L54.9597 8.54333C58.065 11.3576 62.3367 12.5022 66.4332 11.6176L66.7748 11.5439C70.2937 10.7841 73.8151 12.8172 74.9166 16.2445L75.0235 16.5773C76.3057 20.5672 79.4328 23.6943 83.4227 24.9765L83.7555 25.0834C87.1828 26.1849 89.2159 29.7063 88.4561 33.2252L88.3824 33.5669C87.4978 37.6633 88.6424 41.935 91.4567 45.0404L91.6914 45.2994C94.1089 47.9669 94.1089 52.0331 91.6914 54.7006L91.4567 54.9597C88.6424 58.065 87.4978 62.3367 88.3824 66.4332L88.4561 66.7748C89.2159 70.2937 87.1828 73.8151 83.7555 74.9166L83.4227 75.0235C79.4328 76.3057 76.3057 79.4328 75.0235 83.4227L74.9166 83.7555C73.8151 87.1828 70.2937 89.2159 66.7748 88.4561L66.4332 88.3824C62.3367 87.4978 58.065 88.6424 54.9596 91.4567L54.7006 91.6914C52.0331 94.1089 47.9669 94.1089 45.2994 91.6914L45.0403 91.4567C41.935 88.6424 37.6633 87.4978 33.5668 88.3824L33.2252 88.4561C29.7063 89.2159 26.1849 87.1828 25.0834 83.7555L24.9765 83.4227C23.6943 79.4328 20.5672 76.3057 16.5773 75.0235L16.2445 74.9166C12.8172 73.8151 10.7841 70.2937 11.5439 66.7748L11.6176 66.4332C12.5022 62.3367 11.3576 58.065 8.54332 54.9596L8.30859 54.7006C5.89114 52.0331 5.89114 47.9669 8.30859 45.2994L8.54333 45.0403C11.3576 41.935 12.5022 37.6633 11.6176 33.5668L11.5439 33.2252C10.7841 29.7063 12.8172 26.1849 16.2445 25.0834L16.5773 24.9765C20.5672 23.6943 23.6943 20.5672 24.9765 16.5773L25.0834 16.2445C26.1849 12.8172 29.7063 10.7841 33.2252 11.5439L33.5669 11.6176C37.6633 12.5022 41.935 11.3576 45.0404 8.54332L45.2994 8.30859C47.9669 5.89114 52.0331 5.89114 54.7006 8.30859Z" stroke="#8A73B5" stroke-width="6"/>
</g>
<defs>
<clipPath id="clip0_521_49">
<rect width="100" height="100" fill="white"/>
</clipPath>
</defs>
</svg>
